<?xml version="1.0" standalone="no"?>
<!DOCTYPE svg PUBLIC "-//W3C//DTD SVG 20010904//EN"
 "http://www.w3.org/TR/2001/REC-SVG-20010904/DTD/svg10.dtd">
<svg version="1.0" xmlns="http://www.w3.org/2000/svg"
 width="300.000000pt" height="158.000000pt" viewBox="0 0 300.000000 158.000000"
 preserveAspectRatio="xMidYMid meet">
<metadata>
Created by potrace 1.10, written by Peter Selinger 2001-2011
</metadata>
<g transform="translate(0.000000,158.000000) scale(0.100000,-0.100000)"
fill="#000000" stroke="none">
<path d="M1610 1012 c0 -13 -7 -30 -15 -38 -10 -11 -15 -36 -15 -85 0 -55 -3
-69 -15 -69 -10 0 -15 10 -15 30 l0 30 -80 0 -80 0 0 -40 c0 -36 -2 -40 -25
-40 -14 0 -25 5 -25 10 0 6 -4 10 -10 10 -5 0 -10 -7 -10 -15 0 -10 -10 -15
-30 -15 -23 0 -30 4 -30 20 0 15 -7 20 -25 20 -16 0 -25 6 -25 15 0 8 -7 15
-15 15 -8 0 -15 -4 -15 -10 0 -5 -21 -10 -47 -10 l-48 0 3 -135 3 -135 -25 0
c-15 0 -26 -4 -26 -10 0 -5 -7 -10 -15 -10 -8 0 -15 -7 -15 -15 0 -10 -11 -15
-35 -15 -33 0 -34 -1 -29 -30 4 -19 2 -30 -5 -30 -7 0 -11 38 -11 120 l0 120
-70 0 c-68 0 -70 -1 -70 -25 0 -22 -4 -25 -40 -25 l-40 0 0 -75 0 -75 -30 0
c-16 0 -30 5 -30 10 0 6 -9 10 -20 10 -13 0 -18 5 -14 15 5 12 -4 15 -51 15
-47 0 -56 -3 -51 -15 4 -11 -2 -15 -24 -15 -17 0 -30 -4 -30 -10 0 -5 -4 -10
-10 -10 -6 0 -10 43 -10 108 l0 107 -90 0 -90 0 0 -117 c0 -116 0 -118 -23
-118 -20 0 -22 4 -19 45 l4 45 -41 0 -41 0 0 -55 c0 -52 -1 -55 -25 -55 -24 0
-25 -2 -25 -65 l0 -65 1435 0 1435 0 0 50 0 50 -35 0 c-19 0 -35 -4 -35 -10 0
-5 -7 -10 -15 -10 -8 0 -15 9 -15 20 0 11 -7 20 -15 20 -8 0 -15 9 -15 20 0
18 -7 20 -60 20 -36 0 -60 -4 -60 -11 0 -11 -24 -39 -34 -39 -3 0 -6 25 -6 55
0 52 -1 55 -26 55 -14 0 -23 -4 -19 -10 4 -6 -10 -10 -34 -10 -23 0 -41 -4
-41 -10 0 -5 -7 -10 -15 -10 -9 0 -15 7 -13 16 2 12 -8 16 -54 17 l-58 2 0
-30 c0 -27 -3 -30 -30 -30 -29 0 -30 1 -30 48 0 35 -4 47 -15 47 -8 0 -15 7
-15 15 0 8 -4 15 -10 15 -5 0 -10 -7 -10 -15 0 -11 -11 -15 -36 -15 -21 0 -33
4 -29 10 3 6 -1 10 -9 10 -10 0 -13 -6 -10 -15 4 -9 0 -15 -10 -15 -13 0 -16
-11 -16 -55 0 -44 -3 -55 -16 -55 -13 0 -15 10 -12 60 2 41 -1 60 -9 60 -6 0
-13 6 -15 12 -4 10 -9 9 -21 -3 -9 -10 -18 -43 -23 -88 -3 -39 -11 -71 -15
-71 -5 0 -9 9 -9 20 0 11 -4 20 -10 20 -6 0 -10 62 -10 165 0 100 -4 165 -10
165 -5 0 -7 7 -4 15 5 13 -6 15 -70 15 -69 0 -76 -2 -76 -20 0 -11 -5 -20 -11
-20 -8 0 -10 22 -7 71 l5 70 -31 -3 c-20 -1 -30 2 -29 10 2 7 -8 12 -23 12
-19 0 -25 -4 -20 -15 3 -8 0 -15 -7 -15 -9 0 -11 -33 -9 -130 3 -126 3 -130
-17 -130 -18 0 -21 6 -21 50 0 28 -4 50 -8 50 -5 0 -9 46 -10 103 -1 57 -6
103 -12 105 -6 2 -10 19 -10 37 0 31 -2 33 -35 32 -30 -1 -35 -4 -35 -25z m60
-102 c0 -19 5 -82 12 -140 11 -106 25 -140 58 -140 33 0 40 22 40 130 0 127 6
153 29 141 9 -5 21 -8 26 -8 6 1 11 -21 13 -50 4 -62 23 -84 51 -59 14 12 32
16 67 14 l49 -3 5 -160 c5 -166 14 -206 53 -229 24 -15 47 15 47 63 l1 36 14
-33 c18 -40 40 -50 65 -27 14 13 20 31 20 61 l0 42 48 4 c26 3 49 3 51 2 2 -2
3 -16 3 -31 -1 -72 72 -102 106 -43 19 33 60 41 82 15 14 -17 46 -20 54 -6 3
5 22 11 41 13 35 4 41 -2 36 -40 -3 -17 28 -52 44 -52 7 0 20 9 30 20 29 32
75 26 114 -16 28 -29 38 -34 62 -29 22 5 29 3 29 -9 0 -15 -130 -16 -1395 -16
l-1395 0 0 30 c0 17 9 39 20 50 13 13 20 33 20 60 0 22 5 40 10 40 6 0 10 -15
10 -33 0 -55 43 -76 82 -40 15 13 18 32 18 115 l0 98 60 0 60 0 1 -57 c1 -32
0 -72 -1 -88 -1 -20 6 -38 20 -50 21 -19 24 -18 92 16 28 14 65 10 103 -11 75
-42 115 -15 115 77 0 49 2 53 23 53 13 0 32 9 42 20 12 13 31 20 57 20 l38 0
0 -98 c0 -86 3 -101 20 -117 16 -15 22 -15 35 -5 8 7 15 21 15 31 0 12 7 19
19 19 11 0 32 10 48 23 15 12 37 27 48 33 18 10 20 23 23 133 l3 121 27 0 c15
0 36 3 48 6 14 4 31 -3 52 -21 29 -24 36 -26 89 -20 65 8 93 27 93 62 0 21 4
23 50 23 35 0 50 -4 50 -13 0 -8 9 -22 21 -33 34 -31 52 -8 65 79 5 41 16 83
24 92 12 15 15 14 26 -7 8 -13 13 -39 14 -58z"/>
</g>
</svg>
